<svg xmlns="http://www.w3.org/2000/svg" xmlns:xlink="http://www.w3.org/1999/xlink" width="46" height="84" viewBox="0 0 46 84"><defs><path id="a" d="M5.628 24.22l5.566-5.323c.5-.477.765-1.11.792-1.754a3.323 3.323 0 0 0 2.029-.902l2.171-2.067a3.316 3.316 0 0 0 1.023-2.516 3.155 3.155 0 0 0 2.51-.846l1.7-1.618a3.154 3.154 0 0 0 .109-4.45l-3.201-3.357a3.163 3.163 0 0 0-4.455-.106l-1.701 1.62a3.137 3.137 0 0 0-.968 2.462 3.323 3.323 0 0 0-2.564.9L6.467 8.33a3.31 3.31 0 0 0-.987 1.901 2.573 2.573 0 0 0-1.88.705L.21 14.162 5.628 24.22z"/><path id="c" d="M12.08.395C5.726.71.504 5.835.055 12.184c-.195 2.76.5 5.35 1.825 7.514l21.475.256a12.652 12.652 0 0 0 2.042-6.734C25.495 6.16 19.81.38 12.73.38c-.215 0-.433.005-.651.016"/><path id="e" d="M12.08.395C5.726.71.504 5.835.055 12.184c-.195 2.76.5 5.35 1.825 7.514l21.475.256a12.652 12.652 0 0 0 2.042-6.734C25.495 6.16 19.81.38 12.73.38c-.215 0-.433.005-.651.016"/><path id="g" d="M12.08.395C5.726.71.504 5.835.055 12.184c-.195 2.76.5 5.35 1.825 7.514l21.475.256a12.652 12.652 0 0 0 2.042-6.734C25.495 6.16 19.81.38 12.73.38c-.215 0-.433.005-.651.016"/><path id="i" d="M12.08.395C5.726.71.504 5.835.055 12.184c-.195 2.76.5 5.35 1.825 7.514l21.475.256a12.652 12.652 0 0 0 2.042-6.734C25.495 6.16 19.81.38 12.73.38c-.215 0-.433.005-.651.016"/><path id="k" d="M12.08.395C5.726.71.504 5.835.055 12.184c-.195 2.76.5 5.35 1.825 7.514l21.475.256a12.652 12.652 0 0 0 2.042-6.734C25.495 6.16 19.81.38 12.73.38c-.215 0-.433.005-.651.016"/><path id="m" d="M12.08.395C5.726.71.504 5.835.055 12.184c-.195 2.76.5 5.35 1.825 7.514l21.475.256a12.652 12.652 0 0 0 2.042-6.734C25.495 6.16 19.81.38 12.73.38c-.215 0-.433.005-.651.016"/><path id="o" d="M12.08.395C5.726.71.504 5.835.055 12.184c-.195 2.76.5 5.35 1.825 7.514l21.475.256a12.652 12.652 0 0 0 2.042-6.734C25.495 6.16 19.81.38 12.73.38c-.215 0-.433.005-.651.016"/><path id="q" d="M12.08.395C5.726.71.504 5.835.055 12.184c-.195 2.76.5 5.35 1.825 7.514l21.475.256a12.652 12.652 0 0 0 2.042-6.734C25.495 6.16 19.81.38 12.73.38c-.215 0-.433.005-.651.016"/><path id="s" d="M12.08.395C5.726.71.504 5.835.055 12.184c-.195 2.76.5 5.35 1.825 7.514l21.475.256a12.652 12.652 0 0 0 2.042-6.734C25.495 6.16 19.81.38 12.73.38c-.215 0-.433.005-.651.016"/><path id="u" d="M12.08.395C5.726.71.504 5.835.055 12.184c-.195 2.76.5 5.35 1.825 7.514l21.475.256a12.652 12.652 0 0 0 2.042-6.734C25.495 6.16 19.81.38 12.73.38c-.215 0-.433.005-.651.016"/><path id="w" d="M26.947.608l3.283 48.763a3.255 3.255 0 0 1-3.021 3.439l-4.627.318a3.236 3.236 0 0 1-3.378-2.493L15.4 31.525l-4.01 18.732a3.252 3.252 0 0 1-3.445 2.412l-4.618-.43a3.237 3.237 0 0 1-2.924-3.506L4.952 1.23 26.947.608z"/><path id="y" d="M12.08.395C5.726.71.504 5.835.055 12.184c-.195 2.76.5 5.35 1.825 7.514l21.475.256a12.652 12.652 0 0 0 2.042-6.734C25.495 6.16 19.81.38 12.73.38c-.215 0-.433.005-.651.016"/><path id="A" d="M.44 5.3a7.739 7.739 0 0 0 11.092 6.9C11.166 6.616 7.18 2.006 1.872.73A7.714 7.714 0 0 0 .44 5.3"/><path id="C" d="M3.497 22.228l14.603-.422a2.823 2.823 0 0 0 2.73-2.894l-.456-15.775A2.822 2.822 0 0 0 17.482.404L2.879.827A2.821 2.821 0 0 0 .15 3.722l.456 15.774a2.82 2.82 0 0 0 2.89 2.732"/></defs><g fill="none" fill-rule="evenodd" transform="matrix(-1 0 0 1 46 0)"><ellipse cx="18" cy="79.5" fill="#F4F4F4" rx="18" ry="4.5"/><g transform="translate(23.524 20.469)"><mask id="b" fill="#fff"><use xlink:href="#a"/></mask><use fill="#E8E0CB" xlink:href="#a"/><path fill="#BCB199" d="M3.563 8.959l.7-.68 9.18 9.462-.7.68zM9.2 3.96l.7-.679 9.18 9.462-.7.68z" mask="url(#b)"/></g><path fill="#BCB199" d="M6.546 2.51l7.096 11.623-.994.607L5.552 3.116z"/><path fill="#F99D78" d="M4.477 5a2.57 2.57 0 0 0 3.448-1.244C8.54 2.446 7.99.878 6.7.256A2.572 2.572 0 0 0 3.251 1.5C2.638 2.81 3.186 4.377 4.477 5"/><path fill="#E0DACE" d="M6.952 29.778a12.624 12.624 0 0 1-1.824-7.516c.447-6.347 5.67-11.47 12.024-11.787 7.378-.368 13.418 5.55 13.317 12.825a12.655 12.655 0 0 1-2.043 6.733"/><g transform="translate(5.072 10.08)"><mask id="d" fill="#fff"><use xlink:href="#c"/></mask><path fill="#BCB199" d="M-5.727 19.604h1.087V31.04h-1.087z" mask="url(#d)" transform="rotate(-179.289 -5.184 25.322)"/></g><g transform="translate(5.072 10.08)"><mask id="f" fill="#fff"><use xlink:href="#e"/></mask><path fill="#BCB199" d="M-3.01 47.251h29.949v1.087H-3.01z" mask="url(#f)" transform="rotate(-179.324 11.965 47.794)"/></g><g transform="translate(5.072 10.08)"><mask id="h" fill="#fff"><use xlink:href="#g"/></mask><path fill="#BCB199" d="M-2.449 52.559h29.948v1.087H-2.449z" mask="url(#h)" transform="rotate(-179.324 12.525 53.102)"/></g><g transform="translate(5.072 10.08)"><mask id="j" fill="#fff"><use xlink:href="#i"/></mask><path fill="#BCB199" d="M-2.476 57.726h29.948v1.087H-2.476z" mask="url(#j)" transform="rotate(-179.324 12.498 58.27)"/></g><g transform="translate(5.072 10.08)"><mask id="l" fill="#fff"><use xlink:href="#k"/></mask><path fill="#BCB199" d="M-2.681 62.707h29.949v1.087H-2.681z" mask="url(#l)" transform="rotate(-179.324 12.294 63.251)"/></g><path fill="#E8E0CB" d="M6.952 29.778a12.624 12.624 0 0 1-1.824-7.516c.447-6.347 5.67-11.47 12.024-11.787 7.378-.368 13.418 5.55 13.317 12.825a12.655 12.655 0 0 1-2.043 6.733"/><g transform="translate(5.072 10.08)"><mask id="n" fill="#fff"><use xlink:href="#m"/></mask><path fill="#BCB199" d="M-5.727 19.604h1.087V31.04h-1.087z" mask="url(#n)" transform="rotate(-179.289 -5.184 25.322)"/></g><g transform="translate(5.072 10.08)"><mask id="p" fill="#fff"><use xlink:href="#o"/></mask><path fill="#BCB199" d="M-3.01 47.251h29.949v1.087H-3.01z" mask="url(#p)" transform="rotate(-179.324 11.965 47.794)"/></g><g transform="translate(5.072 10.08)"><mask id="r" fill="#fff"><use xlink:href="#q"/></mask><path fill="#BCB199" d="M-2.449 52.559h29.948v1.087H-2.449z" mask="url(#r)" transform="rotate(-179.324 12.525 53.102)"/></g><g transform="translate(5.072 10.08)"><mask id="t" fill="#fff"><use xlink:href="#s"/></mask><path fill="#BCB199" d="M-2.476 57.726h29.948v1.087H-2.476z" mask="url(#t)" transform="rotate(-179.324 12.498 58.27)"/></g><g transform="translate(5.072 10.08)"><mask id="v" fill="#fff"><use xlink:href="#u"/></mask><path fill="#BCB199" d="M-2.681 62.707h29.949v1.087H-2.681z" mask="url(#v)" transform="rotate(-179.324 12.294 63.251)"/></g><g transform="translate(2 28.549)"><mask id="x" fill="#fff"><use xlink:href="#w"/></mask><use fill="#E8E0CB" xlink:href="#w"/><path fill="#BCB199" d="M40.75 26.684l-47.76.206-.004-.883 47.76-.206zm-.35 6.143l-47.759.205-.004-.882 47.76-.205zm-.03 6.047l-47.76.2-.003-.882 47.76-.2z" mask="url(#x)"/></g><g transform="translate(5.072 10.08)"><mask id="z" fill="#fff"><use xlink:href="#y"/></mask><path fill="#A6B4B9" d="M14.279 5.396c.097 4.276 3.637 7.664 7.909 7.567a7.739 7.739 0 0 0 7.559-7.915C29.65.772 26.11-2.616 21.838-2.52c-4.271.096-7.656 3.64-7.56 7.915" mask="url(#z)"/></g><g transform="translate(18.91 10.08)"><mask id="B" fill="#fff"><use xlink:href="#A"/></mask><path fill="#3D545E" fill-opacity=".22" d="M-.541 4.076c-.013-.268-.02-.54-.02-.814 0-5.16 2.385-9.342 5.326-9.342.161 0 .32.012.478.037a3.62 3.62 0 0 1 .521-.037c3.493 0 6.325 4.943 6.325 11.04C12.09 11.057 9.257 16 5.764 16 2.271 16-.56 11.057-.56 4.96c0-.298.007-.592.02-.884zm0 0c.235 4.778 2.521 8.527 5.306 8.527 2.942 0 5.327-4.182 5.327-9.341 0-4.878-2.131-8.882-4.85-9.305C2.16-5.604-.296-1.307-.54 4.077z" mask="url(#B)" transform="rotate(-39 5.764 4.96)"/><g fill="#CDDCE6" mask="url(#B)" opacity=".3"><ellipse cx="3.188" cy="3.178" rx="2.11" ry="1.658" transform="scale(-1 1) rotate(-40 1.436 16.541)"/></g></g><g transform="translate(1 31)"><path fill="#ED8370" d="M29.303 18.298s-5.532 2.205-9.047-2.01c-3.515-4.214.467 2.742.467 2.742s3.044 3.04 8.704 1.101"/><mask id="D" fill="#fff"><use xlink:href="#C"/></mask><use fill="#ED8370" xlink:href="#C"/><path fill="#3D545E" d="M.59 18.958l10.895-.315a3.105 3.105 0 0 0 3.004-3.186 3.105 3.105 0 0 0-3.183-3.005l-10.895.314.179 6.192z" mask="url(#D)"/><path fill="#D6CEB2" d="M10.668 10.454a1.033 1.033 0 1 0 2.066-.062 1.035 1.035 0 0 0-1.063-1.004 1.036 1.036 0 0 0-1.003 1.066m-3.522.101a1.034 1.034 0 1 0 2.067-.058 1.034 1.034 0 0 0-2.067.058" mask="url(#D)"/><path fill="#9EAFB2" d="M12.273 17.385a.664.664 0 0 0 .643-.682l-.069-2.393a.667.667 0 0 0-.681-.644.664.664 0 0 0-.644.682l.07 2.393c.01.365.316.654.68.644m-2.86.083a.666.666 0 0 0 .643-.682l-.069-2.393a.667.667 0 0 0-.682-.645.666.666 0 0 0-.643.683l.07 2.392c.01.366.316.656.68.645m-2.859.083a.664.664 0 0 0 .643-.682l-.069-2.393a.667.667 0 0 0-.681-.644.664.664 0 0 0-.644.682l.07 2.393c.01.364.316.654.68.644m-2.861.082a.664.664 0 0 0 .644-.682l-.069-2.392a.667.667 0 0 0-.682-.645.664.664 0 0 0-.643.682l.07 2.393c.01.366.317.656.68.644" mask="url(#D)"/><path fill="#7D9199" d="M2.2 11.335l3.285-.094a.673.673 0 0 0-.04-1.344l-3.283.095a.673.673 0 0 0-.652.691c.013.37.323.663.69.652" mask="url(#D)"/><path fill="#3D545E" d="M13.394 7.893L-.58 8.297-.793.921 13.18.517z" mask="url(#D)"/></g></g></svg>